<svg xmlns="http://www.w3.org/2000/svg" viewBox="0 0 90.29 148.12"><defs><style>.cls-1{fill:#fff;}.cls-2{fill:#dbcec8;}.cls-3{fill:#637582;}.cls-4{fill:#81919b;}.cls-5{fill:#455760;}.cls-6,.cls-7{fill:none;stroke:#3e3127;stroke-miterlimit:10;}.cls-6{stroke-width:3px;}.cls-7{stroke-width:5px;}.cls-8{fill:#919fa8;}.cls-9{fill:#b7dbeb;}.cls-10{fill:#eff7f9;}</style></defs><title>Asset 30</title><g id="Layer_2" data-name="Layer 2"><g id="Layer_1-2" data-name="Layer 1"><path class="cls-1" d="M72.47,135.72H20.78a3.74,3.74,0,0,1-3.73-3.52L11.25,29.64H82L76.19,132.2A3.72,3.72,0,0,1,72.47,135.72Z"/><path class="cls-2" d="M80.49,26.65,74.69,129.2A3.72,3.72,0,0,1,71,132.72H43.23C67,93.85,66.47,34.37,45.48,26.65Z"/><circle class="cls-2" cx="59.99" cy="59.74" r="6.65"/><circle class="cls-2" cx="48.14" cy="54.18" r="2.97"/><polygon class="cls-3" points="76.84 99.48 15.74 99.48 14.17 72 78.4 72 76.84 99.48"/><polygon class="cls-4" points="22.68 100.23 16.83 100.23 14.68 72.74 20.52 72.74 22.68 100.23"/><path class="cls-5" d="M77.68,72.5,76.12,100H56.64A135.48,135.48,0,0,0,60.76,72.5Z"/><line class="cls-6" x1="14" y1="72.49" x2="80.47" y2="72.49"/><line class="cls-6" x1="14" y1="99.98" x2="77.9" y2="99.98"/><path class="cls-7" d="M72.22,133H20.53a3.74,3.74,0,0,1-3.73-3.52L11,26.89H81.75L75.94,129.45A3.72,3.72,0,0,1,72.22,133Z"/><path class="cls-5" d="M18.49,16.45l1.8-9.3a5.73,5.73,0,0,1,6-4.64L69.09,5.12a5.74,5.74,0,0,1,5.38,5.73v6.6"/><path class="cls-7" d="M18.74,16.45l1.8-9.3a5.73,5.73,0,0,1,6-4.64L69.34,5.12a5.74,5.74,0,0,1,5.38,5.73v6.6"/><path class="cls-3" d="M86.21,28.69H5.38a1,1,0,0,1-1-1V26.13A12.75,12.75,0,0,1,17.12,13.38H74.47A12.75,12.75,0,0,1,87.22,26.13v1.56A1,1,0,0,1,86.21,28.69Z"/><path class="cls-4" d="M84.65,21.28a12.58,12.58,0,0,0-6.84-2H20.45A12.76,12.76,0,0,0,7.78,30.73H4.84a1,1,0,0,1-1-1V28.16A12.74,12.74,0,0,1,16.59,15.42H73.94A12.71,12.71,0,0,1,84.65,21.28Z"/><path class="cls-7" d="M86.79,29.27H6a1,1,0,0,1-1-1V26.7A12.75,12.75,0,0,1,17.7,14H75.05A12.74,12.74,0,0,1,87.79,26.7v1.57A1,1,0,0,1,86.79,29.27Z"/><circle class="cls-4" cx="17.56" cy="21.19" r="2.56"/><circle class="cls-4" cx="22.9" cy="23.16" r="1.53"/><path class="cls-8" d="M52.07,91.91c-2.27,1.61-5.94,1.5-9.11-.49-3.91-2.46-5.58-6.86-3.71-9.82a1.43,1.43,0,0,1,.16-.24,6.4,6.4,0,0,0,.77,1.52,7.59,7.59,0,0,0,5.58,3.32,10.81,10.81,0,0,1,2.18.35,5.67,5.67,0,0,1,2.8,2.77C51.23,90.2,51.64,91.1,52.07,91.91Z"/><path class="cls-8" d="M53.92,89.87a2.92,2.92,0,0,1-.29.4,24.64,24.64,0,0,0-1-2.32,9.32,9.32,0,0,0-1.32-2.07A5.5,5.5,0,0,0,49,84.26a10.77,10.77,0,0,0-2.58-.41,6.88,6.88,0,0,1-2-.41,7.39,7.39,0,0,1-2.81-1.94A9.55,9.55,0,0,1,40.57,80c2.2-2,6.21-2.1,9.64.06C54.12,82.5,55.78,86.9,53.92,89.87Z"/><rect class="cls-9" x="2" y="130.33" width="84.97" height="13.79" rx="5.37"/><path class="cls-10" d="M86.22,138.48a6.63,6.63,0,0,0-2.53-.49H12.52a6.9,6.9,0,0,0-4.88,2,6.83,6.83,0,0,0-2,4.87,6.68,6.68,0,0,0,.49,2.54,6.89,6.89,0,0,1,2.53-13.3H79.82A6.88,6.88,0,0,1,86.22,138.48Z"/><rect class="cls-7" x="2.5" y="131.83" width="84.97" height="13.79" rx="6.9"/></g></g></svg>